<svg xmlns="http://www.w3.org/2000/svg" viewBox="0 0 25 25"><title>instagram</title><g id="Layer_2" data-name="Layer 2"><g id="Layer_1-2" data-name="Layer 1"><path d="M15,12.5A2.5,2.5,0,1,1,12.5,10,2.5,2.5,0,0,1,15,12.5Zm3.61-3c0,.79,0,1,0,3s0,2.24,0,3c-.09,2-1,3-3.07,3.07-.79,0-1,0-3,0s-2.24,0-3,0A2.82,2.82,0,0,1,6.4,15.53c0-.79,0-1,0-3s0-2.24,0-3c.09-2,1-3,3.07-3.07.79,0,1,0,3,0s2.24,0,3,0C17.56,6.49,18.51,7.45,18.61,9.47Zm-2.25,3a3.85,3.85,0,1,0-3.85,3.85A3.85,3.85,0,0,0,16.35,12.5Zm1.05-4a.9.9,0,1,0-.9.9A.9.9,0,0,0,17.4,8.5ZM25,0V25H0V0ZM20,12.5c0-2,0-2.29,0-3.09A4.14,4.14,0,0,0,15.59,5c-.8,0-1.06,0-3.09,0S10.21,5,9.41,5A4.14,4.14,0,0,0,5,9.41c0,.8,0,1.06,0,3.09s0,2.29,0,3.09A4.14,4.14,0,0,0,9.41,20c.8,0,1.05,0,3.09,0s2.29,0,3.09,0A4.14,4.14,0,0,0,20,15.59C20,14.79,20,14.54,20,12.5Z"/></g></g></svg>