<?xml version="1.0" encoding="utf-8"?>
<!-- Generator: Adobe Illustrator 16.0.0, SVG Export Plug-In . SVG Version: 6.00 Build 0)  -->
<!DOCTYPE svg PUBLIC "-//W3C//DTD SVG 1.1//EN" "http://www.w3.org/Graphics/SVG/1.1/DTD/svg11.dtd">
<svg version="1.1" id="Layer_1" xmlns="http://www.w3.org/2000/svg" xmlns:xlink="http://www.w3.org/1999/xlink" x="0px" y="0px"
	 width="70.87px" height="70.87px" viewBox="0 0 70.87 70.87" enable-background="new 0 0 70.87 70.87" xml:space="preserve">
<g>
	<polygon fill="#010101" points="30.899,42.718 42.722,35.438 30.899,28.158 	"/>
	<path fill="#010101" d="M0.002,0.004V70.87h70.866V0.004H0.002z M58.152,46.718c-0.541,2.016-2.437,3.67-4.482,4.211
		c-3.699,0.963-18.229,0.903-18.229,0.903s-14.528,0.09-18.229-0.903c-2.015-0.541-4.001-2.195-4.542-4.211
		c-0.992-3.67-0.902-11.28-0.902-11.28s-0.09-7.61,0.902-11.28c0.541-2.016,2.497-3.67,4.542-4.212
		c3.7-0.962,18.229-0.902,18.229-0.902s14.8,0,18.5,0.963c2.046,0.542,3.64,2.136,4.182,4.151c0.991,3.67,1.021,11.28,1.021,11.28
		S59.145,43.078,58.152,46.718z"/>
</g>
</svg>
